<?xml version="1.0" encoding="utf-8"?>
<!-- Generator: Adobe Illustrator 22.0.1, SVG Export Plug-In . SVG Version: 6.00 Build 0)  -->
<svg version="1.1" id="Layer_1" xmlns="http://www.w3.org/2000/svg" xmlns:xlink="http://www.w3.org/1999/xlink" x="0px" y="0px"
	 viewBox="0 0 612 792" style="enable-background:new 0 0 612 792;" xml:space="preserve">
<style type="text/css">
	.st0{fill:#F15C5D;}
	.st1{fill:#76CCCF;}
	.st2{fill:#F1F1EC;}
	.st3{fill:#484542;}
</style>
<g>
	<path class="st0" d="M332,435.2c-0.4,0-0.9-0.1-1.2-0.3c-0.6-0.4-1-1-1.2-1.6l-1.3-6.9c-6,5.1-13.8,8-21.8,8h0
		c-9.4,0-18.4-4-24.8-10.9c-0.8-0.8-0.8-2-0.3-2.9c0,0,0,0,0,0c0-0.1,0.1-0.1,0.1-0.2c0,0,0-0.1,0.1-0.1c0,0,0.1-0.1,0.1-0.1
		c0,0,0.1-0.1,0.1-0.1c0,0,0,0,0,0c0,0,0,0,0,0c0,0,0.1-0.1,0.1-0.1c0,0,0,0,0,0c0,0,0.1-0.1,0.1-0.1c0,0,0,0,0.1,0c0,0,0,0,0,0
		l4.6-2.7l-19-6.6l-4.3,20.1l3-1.7c0,0,0,0,0,0c0,0,0.1,0,0.1-0.1c0,0,0.1,0,0.1,0c0,0,0.1,0,0.1-0.1c0,0,0.1,0,0.1,0
		c0,0,0.1,0,0.1,0c0,0,0.1,0,0.1,0c0,0,0.1,0,0.1,0c0,0,0.1,0,0.1,0c0,0,0.1,0,0.1,0c0,0,0.1,0,0.1,0c0,0,0.1,0,0.1,0
		c0,0,0.1,0,0.1,0c0,0,0.1,0,0.1,0c0,0,0.1,0,0.1,0c0,0,0.1,0,0.1,0c0,0,0.1,0,0.1,0c0,0,0.1,0,0.1,0c0,0,0.1,0,0.1,0
		c0,0,0.1,0,0.1,0.1c0,0,0.1,0,0.1,0c0,0,0.1,0,0.1,0.1c0,0,0.1,0,0.1,0.1c0,0,0.1,0,0.1,0.1c0,0,0.1,0,0.1,0.1c0,0,0.1,0,0.1,0.1
		c0,0,0.1,0.1,0.1,0.1c0,0,0,0,0.1,0.1c0,0,0.1,0.1,0.1,0.1c0,0,0,0,0,0c8.9,11.3,22.7,18,36.9,18c13.1,0,25.4-5.4,34.1-14.8
		l-7.9,2.5C332.5,435.2,332.3,435.2,332,435.2z M298.7,440.4c-0.4,1.4-1.7,1.9-3,1.7c-8.9-1.2-16.8-6.6-22.3-13.6
		c-0.8-1-1-2.4,0-3.5c0.9-0.9,2.6-1,3.5,0c5.1,6.5,11.9,11.2,20.2,12.3C298.3,437.6,299,439.2,298.7,440.4z"/>
	<path class="st1" d="M264.8,405.1c0.6-0.3,1.3-0.4,2-0.2l6.7,2.3c-0.4-2.1-0.6-4.3-0.6-6.6c0-7.7,2.7-15.3,7.6-21.3
		c4.8-5.9,11.6-10,19-11.6l0,0c0,0,0,0,0,0c0.3-0.1,0.7-0.1,1,0c0,0,0,0,0,0c0.1,0,0.1,0,0.2,0c0,0,0.1,0,0.1,0c0,0,0.1,0,0.1,0.1
		c0,0,0.1,0,0.1,0c0,0,0.1,0,0.1,0.1c0,0,0.1,0,0.1,0c0,0,0.1,0,0.1,0.1c0,0,0,0,0.1,0.1c0,0,0.1,0.1,0.1,0.1c0,0,0,0,0.1,0
		c0,0,0.1,0.1,0.1,0.1c0,0,0,0,0,0c0,0,0.1,0.1,0.1,0.1c0,0,0,0,0,0c0,0,0.1,0.1,0.1,0.1c0,0,0,0,0,0.1c0,0,0.1,0.1,0.1,0.1
		c0,0,0,0.1,0,0.1c0,0,0,0.1,0.1,0.1c0,0,0,0.1,0,0.1c0,0,0,0.1,0,0.1c0,0.1,0,0.1,0,0.2c0,0,0,0,0,0.1c0,0,0,0,0,0c0,0,0,0.1,0,0.1
		c0,0,0,0.1,0,0.1c0,0,0,0.1,0,0.1c0,0.1,0,0.1,0,0.2l0,0v5.5l15.2-13.2l-15.2-13.8v3.3c0,0,0,0,0,0.1c0,0.1,0,0.1,0,0.2
		c0,0,0,0.1,0,0.1c0,0,0,0.1,0,0.1c0,0,0,0.1,0,0.1c0,0,0,0.1,0,0.1c0,0,0,0.1,0,0.1c0,0,0,0.1,0,0.1c0,0,0,0.1-0.1,0.1
		c0,0,0,0.1,0,0.1c0,0,0,0.1-0.1,0.1c0,0,0,0.1-0.1,0.1c0,0-0.1,0.1-0.1,0.1c0,0,0,0.1-0.1,0.1c0,0-0.1,0.1-0.1,0.1
		c0,0,0,0.1-0.1,0.1c0,0-0.1,0.1-0.1,0.1c0,0-0.1,0-0.1,0.1c0,0-0.1,0.1-0.1,0.1c0,0-0.1,0-0.1,0.1c0,0-0.1,0-0.1,0.1
		c0,0-0.1,0-0.1,0.1c0,0-0.1,0-0.1,0.1c0,0-0.1,0-0.1,0c0,0-0.1,0-0.1,0.1c0,0-0.1,0-0.1,0c-0.1,0-0.1,0-0.2,0c0,0,0,0-0.1,0
		c-0.1,0-0.1,0-0.2,0c0,0,0,0-0.1,0c-23.1,3.1-40.5,23-40.5,46.3c0,5,0.7,9.9,2.1,14.4l1.8-8.3C263.8,406,264.2,405.4,264.8,405.1z
		 M275.8,370.1c5.5-7.1,14.1-11.3,23-12.5c1.3-0.2,2.6,0.3,3,1.7c0.3,1.2-0.4,2.8-1.7,3c-8.2,1.2-15.7,4.7-20.8,11.2
		c-0.8,1.1-2.6,0.9-3.5,0C274.8,372.6,275,371.2,275.8,370.1z"/>
	<path class="st2" d="M350.9,422c-1.2-0.5-1.8-1.8-1.4-3c0,0,0,0,0,0c0-0.1,0-0.1,0.1-0.2c2.4-5.7,3.6-11.8,3.6-18.1
		c0-22.2-15.5-41-36.5-45.6l6.2,5.6c0.5,0.5,0.8,1.1,0.8,1.8c0,0.7-0.3,1.4-0.8,1.8l-5.3,4.6c13.3,4.6,22.6,17.3,22.6,31.8
		c0,3.5-0.5,6.9-1.6,10.1c0,0.3-0.1,0.7-0.3,1c-0.5,0.8-1.3,1.2-2.1,1.2c-0.4,0-0.8-0.1-1.2-0.3l-4.9-2.8l3.8,19.7l19.5-6.2
		L350.9,422C350.9,422,350.9,422,350.9,422z M343.3,417.7c-1.2-0.7-1.4-2.1-0.9-3.3c3.2-7.2,4-15.4,1.3-23c-0.5-1.3,0.5-2.7,1.7-3
		c1.4-0.4,2.5,0.5,3,1.7c3.2,8.8,2,18.3-1.8,26.7C346.1,418.1,344.4,418.3,343.3,417.7z"/>
	<path class="st3" d="M277.2,373.6c5.1-6.6,12.6-10.1,20.8-11.2c1.3-0.2,2-1.8,1.7-3c-0.4-1.4-1.7-1.9-3-1.7
		c-8.8,1.2-17.4,5.4-23,12.5c-0.8,1-1,2.4,0,3.5C274.6,374.5,276.4,374.7,277.2,373.6z"/>
	<path class="st3" d="M346.4,390.1c-0.5-1.2-1.6-2.1-3-1.7c-1.2,0.3-2.2,1.8-1.7,3c2.7,7.5,1.9,15.7-1.3,23
		c-0.5,1.2-0.4,2.6,0.9,3.3c1.1,0.6,2.8,0.3,3.3-0.9C348.4,408.4,349.6,398.9,346.4,390.1z"/>
	<path class="st3" d="M358.7,421.9l-5.8-3.3c2.1-5.7,3.2-11.8,3.2-18c0-27.1-21-49.6-47.9-51.5l-8.7-7.9c0,0,0,0,0,0
		c0,0-0.1-0.1-0.1-0.1c0,0-0.1,0-0.1-0.1c0,0-0.1,0-0.1-0.1c0,0-0.1,0-0.1-0.1c0,0-0.1,0-0.1-0.1c0,0-0.1,0-0.1,0c0,0-0.1,0-0.1,0
		c0,0-0.1,0-0.1,0c0,0-0.1,0-0.1,0c0,0-0.1,0-0.1,0c0,0-0.1,0-0.1,0c0,0-0.1,0-0.1,0c0,0-0.1,0-0.1,0c0,0-0.1,0-0.1,0c0,0,0,0-0.1,0
		c0,0,0,0-0.1,0c0,0-0.1,0-0.1,0c0,0-0.1,0-0.1,0c0,0-0.1,0-0.1,0c0,0-0.1,0-0.1,0c0,0-0.1,0-0.1,0c0,0-0.1,0-0.1,0c0,0-0.1,0-0.1,0
		c0,0-0.1,0-0.1,0c0,0-0.1,0-0.1,0.1c0,0-0.1,0-0.1,0.1c0,0-0.1,0-0.1,0.1c0,0-0.1,0-0.1,0.1c0,0-0.1,0-0.1,0.1c0,0-0.1,0-0.1,0.1
		c0,0-0.1,0.1-0.1,0.1c0,0-0.1,0.1-0.1,0.1c0,0,0,0,0,0c0,0,0,0,0,0c0,0-0.1,0.1-0.1,0.1c0,0,0,0.1-0.1,0.1c0,0,0,0.1-0.1,0.1
		c0,0,0,0.1-0.1,0.1c0,0,0,0.1-0.1,0.1c0,0,0,0.1-0.1,0.1c0,0,0,0.1,0,0.1c0,0,0,0.1,0,0.1c0,0,0,0.1,0,0.1c0,0,0,0.1,0,0.1
		c0,0,0,0.1,0,0.1c0,0,0,0.1,0,0.1c0,0,0,0.1,0,0.1c0,0,0,0.1,0,0.1c0,0,0,0,0,0.1v6.7c-11.5,2-22,7.9-29.7,16.7
		c-8.3,9.4-12.9,21.6-12.9,34.1c0,8.3,1.8,16.2,5.1,22.9l-2.4,11.3c-0.3,1.3,0.6,2.6,1.9,2.9c0.2,0,0.3,0.1,0.5,0.1
		c0.6,0,1.1-0.2,1.5-0.5l5.7-3.3c4.5,5.3,10.2,9.7,16.4,12.8c7.1,3.6,15.1,5.5,23,5.5c17.1,0,32.9-8.4,42.6-22.4l10.8-3.4
		c0.8-0.1,1.5-0.5,1.9-1.2C360.3,424.1,359.9,422.6,358.7,421.9z M257.7,400.6c0-23.3,17.4-43.2,40.5-46.3c0,0,0,0,0,0
		c0.1,0,0.1,0,0.2,0c0,0,0,0,0.1,0c0.1,0,0.1,0,0.2,0c0,0,0.1,0,0.1,0c0,0,0.1,0,0.1-0.1c0,0,0.1,0,0.1,0c0,0,0.1,0,0.1-0.1
		c0,0,0.1,0,0.1-0.1c0,0,0.1,0,0.1-0.1c0,0,0.1,0,0.1-0.1c0,0,0.1-0.1,0.1-0.1c0,0,0.1,0,0.1-0.1c0,0,0.1-0.1,0.1-0.1
		c0,0,0-0.1,0.1-0.1c0,0,0.1-0.1,0.1-0.1c0,0,0-0.1,0.1-0.1c0,0,0.1-0.1,0.1-0.1c0,0,0-0.1,0.1-0.1c0,0,0-0.1,0.1-0.1
		c0,0,0-0.1,0-0.1c0,0,0-0.1,0.1-0.1c0,0,0-0.1,0-0.1c0,0,0-0.1,0-0.1c0,0,0-0.1,0-0.1c0,0,0-0.1,0-0.1c0,0,0-0.1,0-0.1
		c0,0,0-0.1,0-0.1c0,0,0-0.1,0-0.2c0,0,0,0,0-0.1v-3.3l15.2,13.8l-15.2,13.2v-5.5l0,0c0-0.1,0-0.1,0-0.2c0,0,0-0.1,0-0.1
		c0,0,0-0.1,0-0.1c0,0,0-0.1,0-0.1c0,0,0,0,0,0c0,0,0,0,0-0.1c0-0.1,0-0.1,0-0.2c0,0,0-0.1,0-0.1c0,0,0-0.1,0-0.1c0,0,0-0.1-0.1-0.1
		c0,0,0-0.1,0-0.1c0-0.1-0.1-0.1-0.1-0.1c0,0,0,0,0-0.1c0,0-0.1-0.1-0.1-0.1c0,0,0,0,0,0c0,0-0.1-0.1-0.1-0.1c0,0,0,0,0,0
		c0,0-0.1-0.1-0.1-0.1c0,0,0,0-0.1,0c0,0-0.1-0.1-0.1-0.1c0,0,0,0-0.1-0.1c0,0-0.1,0-0.1-0.1c0,0-0.1,0-0.1,0c0,0-0.1,0-0.1-0.1
		c0,0-0.1,0-0.1,0c0,0-0.1,0-0.1-0.1c0,0,0,0-0.1,0c-0.1,0-0.1,0-0.2,0c0,0,0,0,0,0c-0.3-0.1-0.6-0.1-1,0c0,0,0,0,0,0c0,0,0,0,0,0
		c-7.4,1.6-14.1,5.7-19,11.6c-4.9,6-7.6,13.5-7.6,21.3c0,2.2,0.2,4.4,0.6,6.6l-6.7-2.3c-0.7-0.2-1.4-0.2-2,0.2
		c-0.6,0.3-1,0.9-1.2,1.6l-1.8,8.3C258.4,410.5,257.7,405.6,257.7,400.6z M322.2,405.5l2.9,15.2c-5.4,5.6-12.9,8.8-20.7,8.8
		c-7,0-13.8-2.6-19-7.2l6.1-3.6c0.6-0.3,1.2-0.8,1.4-1.5c0.4-1,0-2.1-0.8-2.7c-0.3-0.2-0.6-0.4-0.9-0.4l-14.3-4.9
		c-0.8-2.7-1.3-5.6-1.3-8.5c0-12.4,8.1-23.5,19.7-27.3v7.6c0,0,0,0,0,0c0,0.1,0,0.1,0,0.1c0,0,0,0.1,0,0.1c0,0,0,0.1,0,0.1
		c0,0,0,0.1,0,0.1c0,0,0,0.1,0,0.1c0,0,0,0.1,0,0.1c0,0,0,0.1,0,0.1c0,0,0,0.1,0,0.1c0,0,0,0.1,0,0.1c0,0,0,0.1,0.1,0.1
		c0,0,0,0.1,0.1,0.1c0,0,0,0.1,0.1,0.1c0,0,0,0.1,0.1,0.1c0,0,0.1,0.1,0.1,0.1c0,0,0,0,0,0c0,0,0,0,0,0c0,0,0.1,0.1,0.1,0.1
		c0,0,0.1,0,0.1,0.1c0,0,0.1,0.1,0.1,0.1c0,0,0.1,0,0.1,0.1c0,0,0.1,0,0.1,0.1c0,0,0.1,0,0.1,0.1c0,0,0.1,0,0.1,0.1c0,0,0.1,0,0.1,0
		c0.1,0,0.1,0,0.2,0.1c0,0,0,0,0.1,0c0.1,0,0.1,0,0.2,0.1c0,0,0,0,0,0c0.1,0,0.2,0,0.2,0c0,0,0,0,0,0c0.1,0,0.2,0,0.3,0l0,0h0
		c0.1,0,0.2,0,0.2,0c0,0,0.1,0,0.1,0c0,0,0.1,0,0.1,0c0,0,0.1,0,0.1,0c0,0,0.1,0,0.1,0c0,0,0.1,0,0.1,0c0,0,0.1,0,0.1,0
		c0,0,0.1,0,0.1,0c0,0,0.1,0,0.1-0.1c0,0,0.1,0,0.1,0c0,0,0.1,0,0.1-0.1c0,0,0.1,0,0.1-0.1c0,0,0.1,0,0.1-0.1c0,0,0.1,0,0.1-0.1
		c0,0,0,0,0,0l11.7-10.1c12.9,3.1,22.1,14.6,22.1,28c0,2.1-0.2,4.2-0.7,6.2l-6.2-3.6c-0.6-0.5-1.4-0.8-2.2-0.7
		C322.8,402.9,322,404.2,322.2,405.5z M304.5,447.4c-14.2,0-28-6.7-36.9-18c0,0,0,0,0,0c0,0-0.1-0.1-0.1-0.1c0,0,0-0.1-0.1-0.1
		c0,0-0.1-0.1-0.1-0.1c0,0-0.1,0-0.1-0.1c0,0-0.1,0-0.1-0.1c0,0-0.1,0-0.1-0.1c0,0-0.1,0-0.1-0.1c0,0-0.1,0-0.1-0.1c0,0-0.1,0-0.1,0
		c0,0-0.1,0-0.1-0.1c0,0-0.1,0-0.1,0c0,0-0.1,0-0.1,0c0,0-0.1,0-0.1,0c0,0-0.1,0-0.1,0c0,0-0.1,0-0.1,0c0,0-0.1,0-0.1,0
		c0,0-0.1,0-0.1,0c0,0-0.1,0-0.1,0c0,0-0.1,0-0.1,0c0,0-0.1,0-0.1,0c0,0-0.1,0-0.1,0c0,0-0.1,0-0.1,0c0,0-0.1,0-0.1,0
		c0,0-0.1,0-0.1,0c0,0-0.1,0-0.1,0c0,0-0.1,0-0.1,0.1c0,0-0.1,0-0.1,0c0,0-0.1,0-0.1,0.1c0,0,0,0,0,0l-3,1.7l4.3-20.1l19,6.6
		l-4.6,2.7c0,0,0,0,0,0c0,0,0,0-0.1,0c0,0-0.1,0.1-0.1,0.1c0,0,0,0,0,0c0,0-0.1,0.1-0.1,0.1c0,0,0,0,0,0c0,0,0,0,0,0
		c0,0-0.1,0.1-0.1,0.1c0,0-0.1,0.1-0.1,0.1c0,0,0,0.1-0.1,0.1c0,0.1-0.1,0.1-0.1,0.2c0,0,0,0,0,0c-0.5,0.9-0.5,2.1,0.3,2.9
		c6.4,6.9,15.4,10.9,24.8,10.9h0c8,0,15.7-2.9,21.8-8l1.3,6.9c0.1,0.7,0.6,1.3,1.2,1.6c0.4,0.2,0.8,0.3,1.2,0.3c0.2,0,0.5,0,0.7-0.1
		l7.9-2.5C329.8,442,317.6,447.4,304.5,447.4z M331.8,429.6l-3.8-19.7l4.9,2.8c0.4,0.2,0.8,0.3,1.2,0.3c0.8,0,1.7-0.4,2.1-1.2
		c0.2-0.3,0.3-0.6,0.3-1c1-3.3,1.6-6.7,1.6-10.1c0-14.4-9.2-27.1-22.6-31.8l5.3-4.6c0.5-0.5,0.8-1.1,0.8-1.8c0-0.7-0.3-1.4-0.8-1.8
		l-6.2-5.6c21,4.7,36.5,23.4,36.5,45.6c0,6.3-1.2,12.4-3.6,18.1c0,0.1,0,0.1-0.1,0.2c0,0,0,0,0,0c-0.4,1.2,0.2,2.5,1.4,3
		c0,0,0,0,0.1,0l2.4,1.4L331.8,429.6z"/>
	<path class="st3" d="M294.9,437.4c-8.2-1.1-15.1-5.9-20.2-12.3c-0.8-1-2.6-0.9-3.5,0c-1,1-0.8,2.4,0,3.5c5.5,7,13.4,12.4,22.3,13.6
		c1.3,0.2,2.6-0.3,3-1.7C297,439.2,296.3,437.6,294.9,437.4z"/>
</g>
</svg>
