<?xml version="1.0" encoding="utf-8"?>
<!-- Generator: Adobe Illustrator 22.0.1, SVG Export Plug-In . SVG Version: 6.00 Build 0)  -->
<svg version="1.1" id="Layer_1" xmlns="http://www.w3.org/2000/svg" xmlns:xlink="http://www.w3.org/1999/xlink" x="0px" y="0px"
	 viewBox="0 0 612 792" style="enable-background:new 0 0 612 792;" xml:space="preserve">
<style type="text/css">
	.st0{fill:#76CCCF;}
	.st1{fill:#F15C5D;}
	.st2{fill:#484542;}
</style>
<g>
	<path class="st0" d="M287.2,409.6c-1.2,0-2.5,0.1-3.8,0.4c-5,1.2-10,8.4-12.4,12.7c3,2.1,9.7,6.1,14.9,6.1c0.6,0,1.2-0.1,1.8-0.2
		c6.9-1.6,11.5-7.1,10.3-12.2C297.1,412.4,292.7,409.6,287.2,409.6z M286.9,417.4c-1.3-0.4-2.6,0-3.7,0.9c-1,0.8-2.4,1-3.5,0
		c-0.9-0.9-1-2.6,0-3.5c2.4-2,5.3-3.1,8.4-2.2C291.2,413.6,289.9,418.3,286.9,417.4z"/>
	<path class="st1" d="M330.4,398.2c1.3,0,2.5-0.2,3.8-0.4c5-1.2,10-8.4,12.4-12.7c-3-2.1-9.7-6.1-14.9-6.1c-0.7,0-1.3,0.1-1.8,0.2
		c-6.9,1.6-11.5,7.1-10.3,12.2C320.5,395.4,325,398.2,330.4,398.2z M324.3,384.6c2.4-2,5.3-3.1,8.4-2.2c3,0.9,1.7,5.6-1.3,4.7
		c-1.3-0.4-2.6,0-3.7,0.9c-1,0.8-2.4,1-3.5,0C323.4,387.2,323.3,385.5,324.3,384.6z"/>
	<path class="st0" d="M309,373.4c5.3,0,9.5-5.7,9.5-12.8c0-5.1-5.9-11.6-9.5-15c-3.6,3.3-9.5,9.9-9.5,15
		C299.4,367.7,303.7,373.4,309,373.4z M305.3,352.9c2.3-2.1,5.8,1.3,3.5,3.5c-1.1,1-1.4,2.1-1.2,3.6c0.2,1.3-0.3,2.6-1.7,3
		c-1.2,0.3-2.8-0.4-3-1.7C302.4,358.2,302.9,355.1,305.3,352.9z"/>
	<path class="st0" d="M283,397.7c1.4,0.4,2.8,0.5,4.2,0.5c5.3,0,9.6-2.6,10.6-6.5c1.3-5.1-3.1-10.7-10-12.5
		c-0.6-0.2-1.3-0.2-2.1-0.2c-4.9,0-11.3,3.4-14.8,5.7C273.2,389,278,396.4,283,397.7z M277.3,384.1c2.4-2,5.3-3.1,8.4-2.2
		c3,0.9,1.7,5.6-1.3,4.7c-1.3-0.4-2.6,0-3.7,0.9c-1,0.8-2.4,1-3.5,0C276.4,386.7,276.3,385,277.3,384.1z"/>
	<path class="st0" d="M333.2,410c-0.8-0.1-1.6-0.2-2.4-0.2c-6.1,0-11,3.3-11.6,7.8c-0.8,5.2,4.3,10.3,11.3,11.3c0.3,0,0.7,0.1,1,0.1
		c5,0,11.6-4.5,15.1-7.4C343.8,417.5,338.2,410.7,333.2,410z M330.1,417.9c-1.3-0.4-2.6,0-3.7,0.9c-1,0.8-2.4,1-3.5,0
		c-0.9-0.9-1-2.6,0-3.5c2.4-2,5.3-3.1,8.4-2.2C334.4,414,333.1,418.7,330.1,417.9z"/>
	<path class="st2" d="M278.7,387.6c1.1-0.9,2.4-1.3,3.7-0.9c3,0.9,4.3-3.8,1.3-4.7c-3.1-0.9-6,0.2-8.4,2.2c-1,0.8-0.9,2.6,0,3.5
		C276.3,388.6,277.7,388.4,278.7,387.6z"/>
	<path class="st2" d="M325.7,388.1c1.1-0.9,2.4-1.3,3.7-0.9c3,0.9,4.3-3.8,1.3-4.7c-3.1-0.9-6,0.2-8.4,2.2c-1,0.9-0.9,2.6,0,3.5
		C323.3,389.1,324.7,388.9,325.7,388.1z"/>
	<path class="st2" d="M315.7,381.1c-2.8,3.5-3.8,7.5-2.9,11.4c0.7,3.2,2.7,5.9,5.7,7.8c2.8,1.8,6.2,2.8,9.9,2.8
		c1.6,0,3.3-0.2,4.9-0.6c4-0.9,8-4.2,12-9.6c2.8-3.8,4.6-7.4,4.6-7.6c0.5-1,0.2-2.3-0.7-3c-0.4-0.3-10.9-8.3-19.6-8.3
		c-1,0-2,0.1-2.9,0.3C322.2,375.4,318.3,377.8,315.7,381.1z M327.8,379.1c0.5-0.1,1.2-0.2,1.8-0.2c5.3,0,11.9,4,14.9,6.1
		c-2.4,4.3-7.4,11.5-12.4,12.7c-1.3,0.3-2.5,0.4-3.8,0.4c-5.4,0-9.9-2.8-10.8-6.8C316.3,386.2,320.9,380.7,327.8,379.1z"/>
	<path class="st2" d="M303.8,363c1.4-0.4,1.9-1.7,1.7-3c-0.2-1.5,0.1-2.6,1.2-3.6c2.3-2.1-1.1-5.6-3.5-3.5c-2.4,2.2-2.9,5.3-2.4,8.4
		C301,362.6,302.6,363.3,303.8,363z"/>
	<path class="st2" d="M306.9,378.3c4,0,7.7-1.9,10.4-5.4c2.6-3.3,4-7.7,4-12.3c0-4.1-2.2-8.7-6.6-13.8c-3.1-3.6-6.2-6.1-6.3-6.2
		c-0.9-0.7-2.2-0.7-3.1,0c-0.1,0.1-3.2,2.6-6.3,6.2c-4.4,5.1-6.6,9.8-6.6,13.8c0,4.6,1.4,9,4,12.3
		C299.3,376.4,302.9,378.3,306.9,378.3z M306.9,345.6c3.6,3.3,9.5,9.8,9.5,15c0,7.1-4.3,12.8-9.5,12.8c-5.3,0-9.5-5.7-9.5-12.8
		C297.4,355.5,303.3,349,306.9,345.6z"/>
	<path class="st2" d="M329.3,413.1c-3.1-0.9-6,0.2-8.4,2.2c-1,0.9-0.9,2.6,0,3.5c1,1,2.4,0.8,3.5,0c1.1-0.9,2.4-1.3,3.7-0.9
		C331.1,418.7,332.3,414,329.3,413.1z"/>
	<path class="st2" d="M349.9,420.8c-0.1-0.1-2.1-3.5-5.3-7.1c-4.4-5.1-8.7-7.9-12.8-8.5c-1-0.2-2.1-0.2-3.1-0.2
		c-8.5,0-15.4,5-16.4,12c-0.6,3.9,0.8,7.9,3.8,11.1c2.9,3,7,5.1,11.6,5.8c0.6,0.1,1.1,0.1,1.7,0.1c9,0,19.5-9.6,20-10
		C350.3,423.1,350.5,421.8,349.9,420.8z M329.4,428.9c-0.4,0-0.7,0-1-0.1c-7-1-12.1-6.1-11.3-11.3c0.7-4.5,5.5-7.8,11.6-7.8
		c0.8,0,1.6,0.1,2.4,0.2c5.1,0.7,10.7,7.5,13.4,11.6C341.1,424.4,334.4,428.9,329.4,428.9z"/>
	<path class="st2" d="M309.3,384.7c-0.2-1.6-1.4-2.4-2.5-2.4h-0.4c-1.1,0-2.3,0.7-2.5,2.4c0,0.2,0,0.4,0,0.7c0,0.5,0,1.1,0,1.8V448
		c0,0.7,0,1.3,0,1.8c0,0.3,0,0.5,0,0.7c0.2,1.6,1.4,2.4,2.5,2.4h0.4c1.1,0,2.3-0.7,2.5-2.4c0-0.2,0-0.4,0-0.7c0-0.5,0-1.1,0-1.8
		v-60.9c0-0.7,0-1.3,0-1.8C309.3,385.1,309.3,384.9,309.3,384.7z"/>
	<path class="st2" d="M268,392.5c3.8,5.5,7.8,8.8,11.7,9.9c1.8,0.5,3.6,0.7,5.4,0.7c7.6,0,13.7-4.1,15.3-10.2
		c1-3.8,0.1-7.9-2.6-11.4c-2.5-3.4-6.4-5.8-10.9-7c-1-0.3-2.1-0.4-3.3-0.4c-8.6,0-19,7.5-19.4,7.8c-0.9,0.7-1.3,1.9-0.8,3
		C263.6,385,265.2,388.6,268,392.5z M283.7,379c0.8,0,1.4,0.1,2.1,0.2c6.8,1.8,11.3,7.4,10,12.5c-1,3.9-5.3,6.5-10.6,6.5
		c-1.4,0-2.8-0.2-4.2-0.5c-4.9-1.3-9.8-8.7-12.1-13C272.4,382.4,278.8,379,283.7,379z"/>
	<path class="st2" d="M295.1,407.5c-2.8-1.8-6.2-2.8-9.9-2.8c-1.6,0-3.2,0.2-4.9,0.6c-4,0.9-8,4.1-12,9.5c-2.8,3.8-4.6,7.4-4.7,7.5
		c-0.5,1-0.2,2.3,0.7,3c0.4,0.3,10.9,8.3,19.6,8.3c1,0,2-0.1,2.9-0.3c4.5-1,8.4-3.4,11.1-6.7c2.8-3.5,3.8-7.5,2.9-11.3
		C300,412.2,298,409.4,295.1,407.5z M285.7,428.6c-0.5,0.1-1.1,0.2-1.8,0.2c-5.3,0-11.9-4.1-14.9-6.1c2.4-4.3,7.4-11.5,12.4-12.7
		c1.2-0.3,2.5-0.4,3.8-0.4c5.5,0,9.9,2.8,10.9,6.8C297.2,421.5,292.6,427,285.7,428.6z"/>
	<path class="st2" d="M286.1,412.7c-3.1-0.9-6,0.2-8.4,2.2c-1,0.9-0.9,2.6,0,3.5c1,1,2.4,0.8,3.5,0c1.1-0.9,2.4-1.3,3.7-0.9
		C287.9,418.3,289.1,413.6,286.1,412.7z"/>
</g>
</svg>
