<?xml version="1.0" encoding="utf-8"?>
<!-- Generator: Adobe Illustrator 22.0.1, SVG Export Plug-In . SVG Version: 6.00 Build 0)  -->
<svg version="1.1" id="Layer_1" xmlns="http://www.w3.org/2000/svg" xmlns:xlink="http://www.w3.org/1999/xlink" x="0px" y="0px"
	 viewBox="0 0 612 792" style="enable-background:new 0 0 612 792;" xml:space="preserve">
<style type="text/css">
	.st0{fill:#F15C5D;}
	.st1{fill:#76CCCF;}
	.st2{fill:#484542;}
</style>
<g>
	<path class="st0" d="M317,438.2l11.3,7.4l2.9-13.5c-2,1.3-4.2,2.5-6.5,3.5C322.2,436.8,319.6,437.6,317,438.2z"/>
	<path class="st0" d="M287.6,445.8l11.6-7.4c-5.1-1-10-3-14.3-5.7L287.6,445.8z"/>
	<path class="st0" d="M267.9,380.8c1-2.5,2.2-4.9,3.6-7.2l-13.1,2.7l7.4,11.5C266.3,385.4,267,383.1,267.9,380.8z"/>
	<path class="st0" d="M265.9,405.6l-7.4,11.3l13.4,2.9c-1.3-2-2.5-4.1-3.4-6.3C267.3,411,266.5,408.3,265.9,405.6z"/>
	<path class="st0" d="M349.3,386.9l7.4-11.2l-13.5-2.9c1.4,2.1,2.6,4.3,3.7,6.7C347.9,381.8,348.7,384.3,349.3,386.9z"/>
	<path class="st0" d="M327.6,347l-11.6,7.5c5.1,1,10,3,14.4,5.7L327.6,347z"/>
	<path class="st0" d="M298,354.8l-11.2-7.3l-2.9,13.5c2.1-1.4,4.3-2.6,6.7-3.6C293,356.2,295.5,355.4,298,354.8z"/>
	<path class="st1" d="M317.9,372.5l0.1,0.1c0.5,0.5,0.8,1.1,0.8,1.8c0,0.7-0.3,1.4-0.8,1.8l-1.8,1.6c7.3,3.2,12.2,10.6,12.2,18.8
		c0,11.3-9.2,20.6-20.6,20.6s-20.6-9.2-20.6-20.6c0-4.7,1.6-9.4,4.6-13c2.9-3.6,7.1-6.1,11.6-7.1c0,0,0,0,0,0c0,0,0.1,0,0.1,0
		c0.1,0,0.1,0,0.2,0c0,0,0,0,0,0c0.2,0,0.3,0,0.5,0c0,0,0,0,0,0c0.1,0,0.1,0,0.2,0c0,0,0,0,0.1,0c0.1,0,0.1,0,0.2,0c0,0,0.1,0,0.1,0
		c0,0,0.1,0,0.1,0c0,0,0.1,0,0.1,0c0,0,0.1,0,0.1,0.1c0,0,0.1,0,0.1,0.1c0,0,0.1,0,0.1,0.1c0,0,0.1,0,0.1,0.1c0,0,0.1,0.1,0.1,0.1
		c0,0,0,0,0.1,0.1c0,0,0.1,0.1,0.1,0.1c0,0,0,0,0.1,0.1c0,0,0.1,0.1,0.1,0.1c0,0,0,0,0,0.1c0,0,0.1,0.1,0.1,0.1c0,0,0,0,0,0.1
		c0,0,0.1,0.1,0.1,0.1c0,0,0,0.1,0,0.1c0,0,0,0.1,0.1,0.1c0,0,0,0.1,0.1,0.1c0,0,0,0.1,0,0.1c0,0.1,0,0.1,0,0.2c0,0,0,0,0,0.1
		c0,0,0,0,0,0c0,0.1,0,0.1,0,0.2c0,0,0,0.1,0,0.1c0,0,0,0.1,0,0.1c0,0.1,0,0.1,0,0.2v0v0.9l6.3-5.4l-6.3-5.7c0,0,0,0.1,0,0.1
		c0,0,0,0.1,0,0.1c0,0,0,0.1,0,0.1c0,0,0,0.1,0,0.1c0,0,0,0.1,0,0.1c0,0,0,0.1-0.1,0.1c0,0,0,0.1,0,0.1c0,0,0,0.1-0.1,0.1
		c0,0,0,0.1-0.1,0.1c0,0,0,0.1-0.1,0.1c0,0,0,0.1-0.1,0.1c0,0-0.1,0.1-0.1,0.1c0,0,0,0.1-0.1,0.1c0,0-0.1,0.1-0.1,0.1
		c0,0-0.1,0.1-0.1,0.1c0,0-0.1,0-0.1,0.1c0,0-0.1,0-0.1,0.1c0,0-0.1,0-0.1,0.1c0,0-0.1,0-0.1,0.1c0,0-0.1,0-0.1,0.1c0,0-0.1,0-0.1,0
		c0,0-0.1,0-0.1,0.1c0,0-0.1,0-0.1,0c0,0-0.1,0-0.1,0c0,0-0.1,0-0.1,0c-0.1,0-0.1,0-0.2,0c0,0,0,0-0.1,0
		c-12.9,1.7-22.6,12.9-22.6,25.9c0,14.4,11.7,26.1,26.1,26.1c14.4,0,26.1-11.7,26.1-26.1C334,385.8,327.4,376.5,317.9,372.5z"/>
	<path class="st0" d="M343.9,419.1l13.1-2.7l-7.4-11.6C348.5,409.9,346.6,414.7,343.9,419.1z"/>
	<path class="st2" d="M361,416.8l-12.6-19.7c0-1,0-1.9-0.1-2.9l12.4-18.9c0.4-0.7,0.5-1.5,0.2-2.3c-0.3-0.7-1-1.3-1.7-1.5l-22.9-5
		c-0.7-0.7-1.3-1.3-2-2l-4.6-22.1c-0.2-0.8-0.7-1.4-1.4-1.8c-0.7-0.3-1.6-0.2-2.3,0.2l-19.8,12.7c-0.2,0-0.4,0-0.6,0
		c-0.8,0-1.5,0-2.3,0.1l-18.8-12.3c-0.7-0.4-1.5-0.5-2.3-0.2c-0.7,0.3-1.3,1-1.5,1.7l-5,22.9c-0.6,0.6-1.3,1.3-1.9,1.9l-22,4.6
		c-0.8,0.2-1.4,0.7-1.8,1.4c-0.3,0.7-0.2,1.6,0.2,2.3l12.5,19.5c0,0.9,0,1.8,0,2.7l-12.5,19c-0.4,0.7-0.5,1.5-0.2,2.3
		c0.3,0.7,1,1.3,1.7,1.5l22.7,5c0.7,0.8,1.5,1.5,2.3,2.3l4.6,22.1c0.2,0.8,0.7,1.4,1.4,1.8c0.3,0.1,0.6,0.2,0.9,0.2
		c0.5,0,0.9-0.1,1.3-0.4l19.7-12.6c0.3,0,0.5,0,0.8,0c0.7,0,1.3,0,2,0l19,12.4c0.4,0.3,0.9,0.4,1.3,0.4c0.3,0,0.6-0.1,0.9-0.2
		c0.7-0.3,1.3-1,1.5-1.7l5-22.9c0.7-0.7,1.5-1.5,2.1-2.2l22-4.6c0.8-0.2,1.4-0.7,1.8-1.4C361.5,418.3,361.4,417.4,361,416.8z
		 M354.7,375.6l-7.4,11.2c-0.6-2.5-1.4-5-2.5-7.5c-1-2.4-2.3-4.6-3.7-6.7L354.7,375.6z M325.6,347l2.7,13.1
		c-4.4-2.7-9.2-4.7-14.4-5.7L325.6,347z M284.8,347.4l11.2,7.3c-2.5,0.6-5,1.4-7.4,2.5c-2.4,1-4.6,2.3-6.7,3.6L284.8,347.4z
		 M256.4,376.4l13.1-2.7c-1.4,2.2-2.6,4.6-3.6,7.2c-0.9,2.3-1.6,4.6-2.1,7L256.4,376.4z M256.4,416.9l7.4-11.3
		c0.6,2.7,1.4,5.3,2.6,7.9c1,2.2,2.1,4.3,3.4,6.3L256.4,416.9z M285.6,445.8l-2.7-13.1c4.3,2.7,9.2,4.7,14.3,5.7L285.6,445.8z
		 M326.3,445.6l-11.3-7.4c2.6-0.6,5.2-1.4,7.7-2.5c2.3-1,4.5-2.2,6.5-3.5L326.3,445.6z M334.6,420.8c-0.3,0.2-0.6,0.5-0.8,0.9
		c-0.7,0.8-1.5,1.6-2.3,2.4c-0.1,0.1-0.1,0.1-0.2,0.2c-3,2.8-6.6,5.2-10.6,6.9c-4.8,2.1-9.9,3.2-15.1,3.2c-0.3,0-0.6,0-1,0
		c-0.2,0-0.5-0.1-0.7,0c-8.7-0.4-16.7-3.7-23.1-9.2c-0.1-0.1-0.2-0.1-0.2-0.2c-0.8-0.7-1.6-1.5-2.4-2.3c-0.2-0.4-0.5-0.7-0.9-0.9
		c-2.6-2.9-4.8-6.3-6.5-10.1c-2.2-5-3.2-10.4-3.2-15.7c0.2-0.5,0.2-1,0.1-1.6c0.2-4,1.1-7.9,2.6-11.7c1.6-3.9,3.7-7.5,6.4-10.7
		c0.3-0.2,0.5-0.5,0.7-0.8c0.7-0.8,1.4-1.5,2.2-2.3c0,0,0,0,0,0c3.1-2.9,6.8-5.3,10.8-7.1c3.8-1.7,7.8-2.7,11.9-3c0.3,0,0.7,0,1-0.1
		c0.7,0,1.5-0.1,2.2-0.1c9.2,0,17.8,3.3,24.5,9c0.2,0.2,0.3,0.3,0.5,0.4c4.1,3.6,7.4,8.1,9.7,13.3c1.7,4,2.7,8,3,12.1
		c0,0.2,0,0.4,0,0.6c0.1,1.1,0.1,2.2,0.1,3.3c0,0.2-0.1,0.5,0,0.8C343.1,406.4,340,414.4,334.6,420.8z M341.9,419.1
		c2.7-4.4,4.7-9.2,5.7-14.3l7.4,11.6L341.9,419.1z"/>
	<path class="st2" d="M308.4,365.7l-4.8-4.4c0,0,0,0,0,0c0,0-0.1-0.1-0.1-0.1c0,0-0.1,0-0.1-0.1c0,0-0.1,0-0.1-0.1
		c0,0-0.1,0-0.1-0.1c0,0-0.1,0-0.1-0.1c0,0-0.1,0-0.1-0.1c0,0-0.1,0-0.1,0c0,0-0.1,0-0.1,0c0,0-0.1,0-0.1,0c0,0-0.1,0-0.1,0
		c0,0-0.1,0-0.1,0c0,0-0.1,0-0.1,0c0,0-0.1,0-0.1,0c0,0-0.1,0-0.1,0c0,0,0,0-0.1,0c0,0,0,0-0.1,0c0,0-0.1,0-0.1,0c0,0-0.1,0-0.1,0
		c0,0-0.1,0-0.1,0c0,0-0.1,0-0.1,0c0,0-0.1,0-0.1,0c0,0-0.1,0-0.1,0c0,0-0.1,0-0.1,0c0,0-0.1,0-0.1,0s-0.1,0-0.1,0.1
		c0,0-0.1,0-0.1,0.1c0,0-0.1,0-0.1,0.1c0,0-0.1,0-0.1,0.1c0,0-0.1,0.1-0.1,0.1c0,0-0.1,0-0.1,0.1c0,0-0.1,0.1-0.1,0.1
		c0,0-0.1,0.1-0.1,0.1c0,0,0,0,0,0c0,0,0,0,0,0c0,0-0.1,0.1-0.1,0.1c0,0,0,0.1-0.1,0.1c0,0,0,0.1-0.1,0.1c0,0,0,0.1-0.1,0.1
		c0,0,0,0.1-0.1,0.1c0,0,0,0.1-0.1,0.1c0,0,0,0.1,0,0.1c0,0,0,0.1,0,0.1c0,0,0,0.1,0,0.1c0,0,0,0.1,0,0.1c0,0,0,0.1,0,0.1
		c0,0,0,0.1,0,0.1c0,0,0,0.1,0,0.1c0,0,0,0.1,0,0.1c0,0,0,0,0,0.1v3.1c-6.6,1.3-12.5,4.8-17,9.9c-5,5.7-7.7,13-7.7,20.5
		c0,17.1,13.9,31,31,31c17.1,0,31-13.9,31-31C336.8,380.5,324.4,367.1,308.4,365.7z M305.8,422.8c-14.4,0-26.1-11.7-26.1-26.1
		c0-13,9.7-24.2,22.6-25.9c0,0,0,0,0.1,0c0.1,0,0.1,0,0.2,0c0,0,0.1,0,0.1,0c0,0,0.1,0,0.1,0c0,0,0.1,0,0.1,0c0,0,0.1,0,0.1-0.1
		c0,0,0.1,0,0.1,0c0,0,0.1,0,0.1-0.1c0,0,0.1,0,0.1-0.1c0,0,0.1,0,0.1-0.1c0,0,0.1,0,0.1-0.1c0,0,0.1,0,0.1-0.1c0,0,0.1-0.1,0.1-0.1
		c0,0,0.1-0.1,0.1-0.1c0,0,0.1-0.1,0.1-0.1c0,0,0.1-0.1,0.1-0.1c0,0,0-0.1,0.1-0.1c0,0,0-0.1,0.1-0.1c0,0,0-0.1,0.1-0.1
		c0,0,0-0.1,0.1-0.1c0,0,0-0.1,0-0.1c0,0,0-0.1,0.1-0.1c0,0,0-0.1,0-0.1c0,0,0-0.1,0-0.1c0,0,0-0.1,0-0.1c0,0,0-0.1,0-0.1
		c0,0,0-0.1,0-0.1l6.3,5.7l-6.3,5.4v-0.9v0c0-0.1,0-0.1,0-0.2c0,0,0-0.1,0-0.1c0,0,0-0.1,0-0.1c0-0.1,0-0.1,0-0.2c0,0,0,0,0,0
		c0,0,0,0,0-0.1c0-0.1,0-0.1,0-0.2c0,0,0-0.1,0-0.1c0,0,0-0.1-0.1-0.1c0,0,0-0.1-0.1-0.1c0,0,0-0.1,0-0.1c0,0-0.1-0.1-0.1-0.1
		c0,0,0,0,0-0.1c0,0-0.1-0.1-0.1-0.1c0,0,0,0,0-0.1c0,0-0.1-0.1-0.1-0.1c0,0,0,0-0.1-0.1c0,0-0.1-0.1-0.1-0.1c0,0,0,0-0.1-0.1
		c0,0-0.1-0.1-0.1-0.1c0,0-0.1,0-0.1-0.1c0,0-0.1,0-0.1-0.1c0,0-0.1,0-0.1-0.1c0,0-0.1,0-0.1-0.1c0,0-0.1,0-0.1,0c0,0-0.1,0-0.1,0
		c0,0-0.1,0-0.1,0c-0.1,0-0.1,0-0.2,0c0,0,0,0-0.1,0c-0.1,0-0.1,0-0.2,0c0,0,0,0,0,0c-0.2,0-0.3,0-0.5,0l0,0c-0.1,0-0.1,0-0.2,0
		c0,0-0.1,0-0.1,0l0,0c-4.5,1-8.7,3.5-11.6,7.1c-3,3.7-4.6,8.3-4.6,13c0,11.3,9.2,20.6,20.6,20.6c11.3,0,20.6-9.2,20.6-20.6
		c0-8.2-4.9-15.5-12.2-18.8l1.8-1.6c0.5-0.5,0.8-1.1,0.8-1.8c0-0.7-0.3-1.4-0.8-1.8l-0.1-0.1c9.5,4,16.1,13.3,16.1,24.1
		C332,411.1,320.2,422.8,305.8,422.8z M299.6,385.2c0,0,0,0.1,0,0.1c0,0,0,0.1,0,0.1c0,0,0,0.1,0,0.1c0,0,0,0.1,0,0.1
		c0,0,0,0.1,0,0.1c0,0,0,0.1,0,0.1c0,0,0,0.1,0,0.1c0,0,0,0.1,0,0.1c0,0,0,0.1,0,0.1c0,0,0,0.1,0.1,0.1c0,0,0,0.1,0.1,0.1
		c0,0,0,0.1,0.1,0.1c0,0,0,0.1,0.1,0.1c0,0,0.1,0.1,0.1,0.1c0,0,0,0,0,0c0,0,0,0,0,0c0,0,0.1,0.1,0.1,0.1c0,0,0.1,0,0.1,0.1
		c0,0,0.1,0.1,0.1,0.1c0,0,0.1,0,0.1,0.1c0,0,0.1,0,0.1,0.1c0,0,0.1,0,0.1,0.1c0,0,0.1,0,0.1,0.1c0,0,0.1,0,0.1,0c0,0,0.1,0,0.2,0.1
		c0,0,0.1,0,0.1,0c0.1,0,0.1,0,0.2,0.1c0,0,0,0,0.1,0c0.1,0,0.2,0,0.2,0c0,0,0,0,0,0c0.1,0,0.2,0,0.3,0l0,0c0.1,0,0.2,0,0.2,0
		c0,0,0.1,0,0.1,0c0,0,0.1,0,0.1,0c0,0,0.1,0,0.1,0c0,0,0.1,0,0.1,0c0,0,0.1,0,0.1,0c0,0,0.1,0,0.1,0c0,0,0.1,0,0.1,0
		c0,0,0.1,0,0.1-0.1c0,0,0.1,0,0.1,0c0,0,0.1,0,0.1-0.1c0,0,0.1,0,0.1-0.1c0,0,0.1,0,0.1-0.1c0,0,0.1,0,0.1-0.1c0,0,0,0,0,0l6.4-5.5
		c6.7,1.8,11.5,8,11.5,15.1c0,8.7-7,15.7-15.7,15.7c-8.7,0-15.7-7-15.7-15.7c0-6.3,3.8-11.9,9.4-14.4L299.6,385.2
		C299.6,385.2,299.6,385.2,299.6,385.2z"/>
</g>
</svg>
