<?xml version="1.0" standalone="no"?>
<!DOCTYPE svg PUBLIC "-//W3C//DTD SVG 20010904//EN"
 "http://www.w3.org/TR/2001/REC-SVG-20010904/DTD/svg10.dtd">
<svg version="1.0" xmlns="http://www.w3.org/2000/svg"
 width="1892.000000pt" height="1886.000000pt" viewBox="0 0 1892.000000 1886.000000"
 preserveAspectRatio="xMidYMid meet">

<g transform="translate(0.000000,1886.000000) scale(0.100000,-0.100000)"
fill="#000000" stroke="none">
<path d="M15230 18515 c0 -36 4 -65 8 -65 5 0 17 -8 28 -18 10 -10 34 -28 52
-40 30 -22 32 -27 32 -85 l0 -62 50 -35 50 -35 0 -66 0 -66 60 -52 60 -52 0
-66 c0 -64 0 -65 55 -126 53 -60 55 -64 55 -121 0 -55 3 -61 44 -107 46 -51
56 -80 56 -163 0 -48 3 -55 70 -135 l70 -85 0 -80 0 -81 70 -99 c224 -316 439
-758 555 -1141 76 -249 130 -515 167 -815 21 -166 17 -739 -5 -920 -88 -709
-338 -1375 -718 -1913 l-69 -98 0 -81 0 -81 -69 -81 -68 -81 -5 -83 -5 -83
-46 -47 c-46 -46 -47 -50 -47 -108 0 -48 -4 -65 -20 -79 -11 -10 -20 -24 -20
-31 0 -7 -16 -25 -35 -40 -34 -26 -35 -28 -35 -96 0 -68 -1 -71 -37 -105 -21
-19 -48 -42 -60 -50 -20 -13 -23 -24 -23 -83 l0 -68 -50 -37 -50 -37 0 -62 0
-61 -60 -44 -60 -44 0 -66 0 -67 -50 -29 c-48 -28 -50 -31 -50 -75 0 -56 -17
-96 -47 -109 -19 -9 -23 -19 -23 -56 0 -37 -4 -47 -25 -61 -22 -14 -25 -23
-25 -75 0 -58 -1 -60 -35 -76 -25 -12 -35 -23 -35 -39 0 -14 -8 -25 -20 -29
-17 -5 -20 -15 -20 -70 l0 -64 -55 -25 c-49 -22 -55 -28 -55 -54 0 -17 -6 -32
-15 -36 -9 -3 -15 -18 -15 -36 0 -28 -5 -34 -40 -47 l-40 -16 0 -83 0 -82 -50
-17 c-49 -16 -50 -18 -50 -56 0 -21 -4 -39 -10 -39 -5 0 -10 -9 -10 -20 0 -11
-4 -20 -10 -20 -5 0 -10 -20 -10 -44 0 -43 0 -44 -45 -56 -32 -9 -45 -18 -45
-30 0 -11 -10 -20 -25 -24 -25 -6 -25 -8 -25 -110 l0 -104 -35 -6 c-19 -4 -35
-11 -35 -15 0 -5 -20 -14 -45 -20 l-45 -11 0 -54 c0 -51 -1 -54 -29 -59 l-29
-6 -7 -110 -7 -109 -64 -12 -64 -12 0 -54 c0 -39 -4 -56 -15 -60 -10 -4 -15
-21 -15 -55 0 -54 3 -52 -90 -67 l-45 -7 -6 -65 c-4 -36 -7 -108 -8 -161 l-1
-97 -47 -6 c-107 -15 -103 -12 -103 -67 l0 -49 -40 -6 -40 -7 0 -53 c0 -52 0
-53 -32 -56 l-33 -3 -9 -107 -9 -108 -33 0 -34 0 0 -55 0 -55 -40 0 -40 0 0
-55 0 -55 -40 0 -40 0 0 -55 c0 -54 0 -55 -30 -55 -30 0 -30 -1 -30 -55 0 -30
-4 -55 -10 -55 -5 0 -10 -22 -10 -50 l0 -50 -40 0 -40 0 0 -55 0 -55 -40 0
-40 0 0 -50 0 -50 -35 0 -35 0 0 -55 0 -55 -35 0 -35 0 0 -105 c0 -63 -4 -105
-10 -105 -5 0 -10 -22 -10 -50 l0 -50 -40 0 -40 0 0 -55 c0 -54 -1 -55 -29
-55 -27 0 -29 -3 -35 -50 -6 -45 -9 -50 -31 -50 -24 0 -25 -3 -25 -55 0 -48
-2 -55 -20 -55 -17 0 -20 -7 -20 -50 0 -27 -4 -50 -10 -50 -5 0 -10 -18 -10
-40 0 -36 -3 -40 -24 -40 -28 0 -36 -16 -36 -76 0 -42 -1 -44 -30 -44 l-30 0
0 -125 0 -125 -50 0 -50 0 0 -100 c0 -93 -1 -100 -20 -100 -19 0 -20 -7 -20
-181 l0 -181 -25 4 -25 5 0 -93 c0 -77 -3 -94 -15 -94 -8 0 -15 -9 -15 -20 0
-13 -7 -20 -20 -20 -19 0 -20 -7 -20 -261 l0 -260 -45 7 -45 6 0 -96 c0 -89
-1 -96 -20 -96 -19 0 -20 -7 -20 -235 l0 -235 -25 0 -25 0 0 -138 0 -138 -35
4 -35 4 0 -161 0 -162 -35 7 -35 6 0 -126 c0 -82 -4 -125 -10 -121 -6 4 -10
-30 -10 -95 l0 -100 -25 6 -25 6 0 -176 c0 -169 -1 -176 -20 -176 -19 0 -20
-7 -20 -195 l0 -195 -40 0 -40 0 0 -715 0 -715 -5634 0 c-3099 0 -5641 3
-5650 6 -15 6 -16 819 -16 9122 l0 9116 -31 -30 c-41 -40 -96 -154 -114 -239
-13 -61 -15 -1166 -15 -8865 0 -7716 2 -8804 15 -8865 40 -188 174 -340 355
-401 54 -19 286 -19 8940 -19 l8885 0 59 23 c174 66 303 215 341 397 13 61 15
1149 15 8865 0 7716 -2 8804 -15 8865 -38 182 -167 331 -341 397 l-59 23
-1637 3 -1638 2 0 -65z"/>
</g>
</svg>
