<svg id="Layer_1" data-name="Layer 1" xmlns="http://www.w3.org/2000/svg" xmlns:xlink="http://www.w3.org/1999/xlink" viewBox="0 0 239.73 251.36"><defs><style>.cls-1{fill:none;}.cls-1,.cls-5{stroke:#231f20;stroke-miterlimit:10;}.cls-2{clip-path:url(#clip-path);}.cls-3,.cls-5{fill:#fff;}.cls-4{fill:#231f20;}</style><clipPath id="clip-path" transform="translate(-55.32 -76.32)"><circle class="cls-1" cx="135.72" cy="187.33" r="79.9"/></clipPath></defs><title>Panel-Levels-Button</title><g class="cls-2"><line class="cls-3" x1="177.03" y1="115.95" x2="74.91" y2="251.33"/><polygon class="cls-4" points="177.07 115.98 170.83 124.55 164.52 133.06 151.9 150.09 139.13 167.01 126.29 183.88 74.95 251.36 74.87 251.3 125.65 183.4 138.34 166.42 151.1 149.49 164.01 132.68 170.47 124.27 176.99 115.92 177.07 115.98"/><line class="cls-3" x1="177.1" y1="110.49" x2="74.99" y2="245.87"/><polygon class="cls-4" points="177.14 110.52 170.9 119.08 164.59 127.6 151.97 144.63 139.21 161.55 126.36 178.42 75.03 245.9 74.95 245.84 125.73 177.94 138.41 160.96 151.18 144.03 164.08 127.22 170.54 118.81 177.06 110.46 177.14 110.52"/><line class="cls-3" x1="178.22" y1="112.12" x2="76.1" y2="247.5"/><polygon class="cls-4" points="178.26 112.15 172.01 120.72 165.71 129.24 153.09 146.27 140.32 163.19 127.48 180.05 76.14 247.53 76.06 247.47 126.84 179.57 139.53 162.59 152.29 145.66 165.19 128.85 171.65 120.44 178.18 112.09 178.26 112.15"/><line class="cls-3" x1="184.04" y1="96.84" x2="81.93" y2="232.22"/><polygon class="cls-4" points="184.08 96.87 177.84 105.44 171.53 113.96 158.91 130.99 146.15 147.91 133.3 164.77 81.97 232.25 81.89 232.19 132.67 164.29 145.35 147.31 158.12 130.39 171.02 113.57 177.48 105.17 184 96.81 184.08 96.87"/><line class="cls-3" x1="183.33" y1="92.55" x2="81.21" y2="227.93"/><polygon class="cls-4" points="183.37 92.58 177.13 101.14 170.82 109.66 158.2 126.69 145.43 143.61 132.59 160.48 81.25 227.96 81.17 227.9 131.95 160 144.64 143.01 157.4 126.09 170.31 109.28 176.76 100.87 183.29 92.52 183.37 92.58"/><line class="cls-3" x1="187.86" y1="79.39" x2="85.74" y2="214.77"/><polygon class="cls-4" points="187.9 79.42 181.66 87.99 175.35 96.51 162.73 113.54 149.96 130.46 137.12 147.33 85.78 214.81 85.7 214.74 136.48 146.84 149.17 129.86 161.93 112.94 174.84 96.13 181.3 87.72 187.82 79.36 187.9 79.42"/><line class="cls-3" x1="193.55" y1="63.29" x2="91.43" y2="198.67"/><polygon class="cls-4" points="193.59 63.32 187.35 71.89 181.04 80.4 168.42 97.43 155.65 114.35 142.81 131.22 91.47 198.7 91.39 198.64 142.17 130.74 154.86 113.76 167.62 96.83 180.53 80.02 186.98 71.61 193.51 63.26 193.59 63.32"/><line class="cls-3" x1="195.44" y1="47.18" x2="93.32" y2="182.56"/><polygon class="cls-4" points="195.48 47.21 189.24 55.78 182.93 64.29 170.31 81.32 157.54 98.24 144.7 115.11 93.36 182.59 93.28 182.53 144.06 114.63 156.75 97.65 169.51 80.72 182.42 63.91 188.88 55.5 195.4 47.15 195.48 47.21"/><line class="cls-3" x1="92.36" y1="20.61" x2="225.42" y2="125.72"/><polygon class="cls-4" points="92.39 20.57 100.81 27 109.19 33.5 125.93 46.49 142.56 59.64 159.14 72.85 225.46 125.68 225.39 125.76 158.64 73.48 141.95 60.41 125.31 47.28 108.79 34 100.53 27.36 92.32 20.65 92.39 20.57"/><line class="cls-3" x1="92.6" y1="19.31" x2="225.67" y2="124.42"/><polygon class="cls-4" points="92.63 19.27 101.06 25.7 109.43 32.2 126.18 45.19 142.81 58.34 159.38 71.55 225.7 124.38 225.64 124.46 158.89 72.18 142.19 59.11 125.56 45.98 109.03 32.7 100.78 26.05 92.57 19.35 92.63 19.27"/><line class="cls-3" x1="88.01" y1="22.5" x2="221.08" y2="127.61"/><polygon class="cls-4" points="88.04 22.46 96.47 28.89 104.84 35.39 121.58 48.38 138.22 61.53 154.79 74.74 221.11 127.57 221.05 127.65 154.29 75.37 137.6 62.3 120.97 49.17 104.44 35.89 96.18 29.25 87.98 22.54 88.04 22.46"/><line class="cls-3" x1="87.85" y1="19.45" x2="220.92" y2="124.56"/><polygon class="cls-4" points="87.88 19.41 96.31 25.84 104.68 32.33 121.42 45.33 138.06 58.47 154.63 71.69 220.95 124.52 220.88 124.6 154.13 72.31 137.44 59.25 120.81 46.12 104.28 32.84 96.02 26.19 87.82 19.48 87.88 19.41"/><line class="cls-3" x1="73.13" y1="15.65" x2="206.2" y2="120.76"/><polygon class="cls-4" points="73.16 15.61 81.59 22.04 89.97 28.54 106.71 41.54 123.34 54.68 139.91 67.89 206.23 120.72 206.17 120.8 139.42 68.52 122.73 55.46 106.09 42.32 89.57 29.04 81.31 22.4 73.1 15.69 73.16 15.61"/><line class="cls-3" x1="56.05" y1="8.97" x2="189.12" y2="114.08"/><polygon class="cls-4" points="56.08 8.93 64.51 15.36 72.88 21.86 89.63 34.85 106.26 47.99 122.83 61.21 189.15 114.04 189.09 114.12 122.34 61.84 105.65 48.77 89.01 35.64 72.49 22.36 64.23 15.71 56.02 9.01 56.08 8.93"/><line class="cls-3" x1="40.07" y1="2.92" x2="173.14" y2="108.03"/><polygon class="cls-4" points="40.1 2.88 48.53 9.31 56.91 15.81 73.65 28.81 90.28 41.95 106.86 55.16 173.17 108 173.11 108.07 106.36 55.79 89.67 42.73 73.03 29.59 56.51 16.31 48.25 9.67 40.04 2.96 40.1 2.88"/><line class="cls-3" x1="24.41" y1="0.04" x2="157.48" y2="105.15"/><polygon class="cls-4" points="24.44 0 32.87 6.43 41.24 12.93 57.99 25.93 74.62 39.07 91.19 52.28 157.51 105.11 157.45 105.19 90.7 52.91 74.01 39.84 57.37 26.71 40.85 13.43 32.59 6.79 24.38 0.08 24.44 0"/><line class="cls-3" x1="153.54" y1="25.09" x2="165.23" y2="179.55"/><polygon class="cls-4" points="153.59 25.09 154.5 34.73 155.32 44.38 156.96 63.67 158.42 82.98 159.78 102.29 165.28 179.54 165.18 179.55 158.99 102.35 157.43 83.05 155.97 63.74 154.69 44.42 154.05 34.76 153.49 25.1 153.59 25.09"/><line class="cls-3" x1="151.63" y1="16.29" x2="163.32" y2="170.74"/><polygon class="cls-4" points="151.68 16.28 152.59 25.92 153.41 35.57 155.05 54.86 156.5 74.17 157.87 93.48 163.37 170.74 163.27 170.74 157.07 93.54 155.52 74.24 154.05 54.94 152.77 35.62 152.13 25.96 151.58 16.29 151.68 16.28"/><line class="cls-3" x1="154.79" y1="25.09" x2="166.47" y2="179.55"/><polygon class="cls-4" points="154.84 25.09 155.75 34.73 156.57 44.38 158.21 63.67 159.66 82.98 161.03 102.29 166.52 179.54 166.42 179.55 160.23 102.35 158.68 83.05 157.21 63.74 155.93 44.42 155.29 34.76 154.74 25.1 154.84 25.09"/><line class="cls-3" x1="149.81" y1="24.74" x2="161.5" y2="179.19"/><polygon class="cls-4" points="149.86 24.73 150.77 34.38 151.59 44.02 153.23 63.31 154.69 82.62 156.05 101.94 161.55 179.19 161.45 179.2 155.25 102 153.7 82.7 152.23 63.39 150.95 44.07 150.31 34.41 149.76 24.74 149.86 24.73"/><line class="cls-3" x1="144.7" y1="26.04" x2="156.39" y2="180.49"/><polygon class="cls-4" points="144.75 26.04 145.66 35.68 146.48 45.32 148.12 64.62 149.57 83.92 150.94 103.24 156.44 180.49 156.34 180.5 150.14 103.3 148.59 84 147.12 64.69 145.84 45.37 145.2 35.71 144.65 26.05 144.75 26.04"/><line class="cls-3" x1="137.75" y1="16.88" x2="149.44" y2="171.33"/><polygon class="cls-4" points="137.8 16.88 138.71 26.52 139.53 36.16 141.17 55.46 142.63 74.76 143.99 94.08 149.49 171.33 149.39 171.34 143.19 94.14 141.64 74.84 140.17 55.53 138.89 36.21 138.25 26.55 137.7 16.89 137.8 16.88"/><line class="cls-3" x1="163.14" y1="31.54" x2="151.45" y2="186"/><polygon class="cls-4" points="163.19 31.55 162.63 41.21 162 50.88 160.71 70.19 159.25 89.5 157.69 108.8 151.5 186 151.4 185.99 156.9 108.74 158.26 89.43 159.72 70.12 161.36 50.83 162.18 41.18 163.09 31.54 163.19 31.55"/><line class="cls-3" x1="156.46" y1="187.45" x2="1.63" y2="192.17"/><polygon class="cls-4" points="156.46 187.5 146.79 187.97 137.11 188.36 117.77 189.13 98.41 189.72 79.06 190.21 1.63 192.22 1.63 192.12 79.03 189.41 98.38 188.73 117.73 188.13 137.09 187.72 146.77 187.52 156.45 187.4 156.46 187.5"/><line class="cls-3" x1="156.2" y1="186.03" x2="1.37" y2="190.75"/><polygon class="cls-4" points="156.2 186.08 146.53 186.55 136.85 186.94 117.51 187.71 98.15 188.29 78.8 188.79 1.38 190.8 1.37 190.7 78.77 187.99 98.12 187.31 117.48 186.71 136.84 186.3 146.51 186.1 156.2 185.98 156.2 186.08"/><line class="cls-3" x1="156.46" y1="188.48" x2="1.63" y2="193.2"/><polygon class="cls-4" points="156.46 188.53 146.79 189 137.11 189.39 117.77 190.16 98.41 190.75 79.06 191.24 1.63 193.25 1.63 193.15 79.03 190.44 98.38 189.76 117.73 189.16 137.09 188.75 146.77 188.55 156.45 188.43 156.46 188.53"/><line class="cls-3" x1="156.15" y1="183.12" x2="1.33" y2="187.84"/><polygon class="cls-4" points="156.16 183.17 146.48 183.64 136.81 184.03 117.46 184.8 98.11 185.38 78.75 185.88 1.33 187.89 1.33 187.79 78.73 185.08 98.08 184.39 117.43 183.8 136.79 183.39 146.47 183.19 156.15 183.07 156.16 183.17"/><line class="cls-3" x1="155.91" y1="178.57" x2="1.08" y2="183.29"/><polygon class="cls-4" points="155.91 178.62 146.24 179.09 136.56 179.48 117.22 180.25 97.86 180.84 78.51 181.33 1.09 183.34 1.08 183.24 78.48 180.53 97.83 179.85 117.19 179.25 136.54 178.84 146.22 178.64 155.91 178.52 155.91 178.62"/><line class="cls-3" x1="165.37" y1="172.04" x2="10.55" y2="176.76"/><polygon class="cls-4" points="165.37 172.09 155.7 172.57 146.03 172.95 126.68 173.72 107.33 174.31 87.97 174.8 10.55 176.81 10.55 176.72 87.95 174 107.3 173.32 126.65 172.72 146.01 172.31 155.69 172.11 165.37 171.99 165.37 172.09"/><line class="cls-3" x1="199.63" y1="160.08" x2="44.81" y2="164.81"/><polygon class="cls-4" points="199.63 160.13 189.96 160.61 180.29 160.99 160.94 161.76 141.59 162.35 122.23 162.84 44.81 164.86 44.81 164.76 122.21 162.04 141.56 161.36 160.91 160.76 180.27 160.35 189.95 160.15 199.63 160.03 199.63 160.13"/><line class="cls-3" x1="196.55" y1="37.59" x2="41.73" y2="32.86"/><polygon class="cls-4" points="196.55 37.64 186.87 37.52 177.19 37.32 157.83 36.91 138.48 36.31 119.13 35.63 41.73 32.91 41.73 32.81 119.16 34.83 138.51 35.32 157.86 35.91 177.21 36.68 186.88 37.06 196.56 37.54 196.55 37.64"/><line class="cls-3" x1="196.38" y1="40.76" x2="41.56" y2="36.03"/><polygon class="cls-4" points="196.38 40.81 186.7 40.69 177.02 40.48 157.66 40.08 138.31 39.48 118.96 38.8 41.56 36.08 41.56 35.98 118.98 37.99 138.34 38.49 157.69 39.08 177.04 39.85 186.71 40.23 196.38 40.71 196.38 40.81"/><line class="cls-3" x1="196.01" y1="46.46" x2="41.18" y2="41.74"/><polygon class="cls-4" points="196 46.51 186.32 46.4 176.64 46.19 157.28 45.78 137.93 45.19 118.58 44.5 41.18 41.79 41.19 41.69 118.61 43.7 137.96 44.2 157.32 44.78 176.66 45.55 186.34 45.94 196.01 46.41 196 46.51"/><line class="cls-3" x1="205.47" y1="52.99" x2="50.65" y2="48.27"/><polygon class="cls-4" points="205.47 53.04 195.79 52.93 186.11 52.72 166.75 52.31 147.4 51.72 128.05 51.03 50.65 48.32 50.65 48.22 128.07 50.23 147.43 50.73 166.78 51.31 186.13 52.08 195.8 52.47 205.47 52.94 205.47 53.04"/><line class="cls-3" x1="239.73" y1="64.95" x2="84.91" y2="60.23"/><polygon class="cls-4" points="239.73 65 230.05 64.89 220.37 64.68 201.01 64.27 181.66 63.68 162.31 62.99 84.91 60.28 84.91 60.18 162.33 62.19 181.69 62.69 201.04 63.27 220.39 64.04 230.06 64.43 239.73 64.9 239.73 65"/></g><circle class="cls-1" cx="80.4" cy="111.01" r="79.9"/><circle class="cls-5" cx="80.44" cy="110.35" r="72.62"/><path class="cls-5" d="M70.75,218.66l64.16-35.1,66,35" transform="translate(-55.32 -76.32)"/></svg>